<svg width="127" height="18" viewBox="0 0 127 18" fill="none" xmlns="http://www.w3.org/2000/svg">
<path fill-rule="evenodd" clip-rule="evenodd" d="M10 14.8207C9.19459 14.8207 8.20898 14.9994 7.06523 15.4975C6.31498 15.8245 5.6383 16.3188 4.52764 17.064C3.18162 17.9651 1.52667 18.6039 0.456472 17.0944C-0.345258 15.9652 0.0335407 14.7751 0.640355 13.6877L3.93922 7.77918L7.42196 1.53987C7.96993 0.562717 8.90774 0 10 0C11.0923 0 12.0301 0.558915 12.578 1.53987L16.0608 7.77918L19.3596 13.6877C19.9665 14.7751 20.3453 15.9652 19.5435 17.0944C18.4733 18.6039 16.8184 17.9651 15.4724 17.064C14.3617 16.3188 13.685 15.8245 12.9348 15.4975C11.791 14.9994 10.8091 14.8207 10 14.8207ZM10 13.087C11.232 13.087 12.453 13.4063 13.5857 13.8968C14.5713 14.3265 15.4907 15.0032 16.3844 15.604C16.4727 15.6648 16.5646 15.7218 16.6529 15.7751C16.9361 15.95 17.6275 16.3226 17.9732 16.2541C18.0614 16.2351 18.1387 16.1363 18.1901 16.064C18.5138 15.6078 18.1387 14.9614 17.907 14.5508L11.1254 2.40295C10.879 1.9619 10.4928 1.72997 10 1.72997C9.50719 1.72997 9.12104 1.9581 8.87464 2.40295L2.09303 14.5508C1.86134 14.9652 1.48622 15.6078 1.80985 16.064C1.85766 16.1325 1.93489 16.2351 2.02683 16.2541C2.43505 16.334 3.27356 15.8359 3.61558 15.604C4.51293 15.0032 5.42867 14.3265 6.41428 13.8968C7.547 13.4025 8.76431 13.087 10 13.087Z" fill="#00B1E3"/>
<path fill-rule="evenodd" clip-rule="evenodd" d="M38.5981 3.10545H36.8184L32 14.4015H33.9673L35.0932 11.6907H40.2688L41.3766 14.4015H43.4105L38.5921 3.10545H38.5981ZM39.5666 9.9476H35.8015L37.678 5.46267L39.5666 9.9476ZM56.6067 14.4015L53.6527 10.1585C54.0401 10.053 54.3912 9.89797 54.706 9.69947C55.0268 9.50096 55.2992 9.25904 55.5292 8.97989C55.7592 8.69454 55.9408 8.37198 56.068 7.99978C56.2011 7.63379 56.2617 7.21198 56.2617 6.74053C56.2617 6.19465 56.1648 5.7046 55.9832 5.25797C55.7956 4.81754 55.5292 4.43915 55.1781 4.13519C54.827 3.83123 54.4033 3.59551 53.8948 3.42802C53.3924 3.26054 52.8234 3.17989 52.1999 3.17989H47.3209V14.3953H49.2277V10.4873H51.643L54.3428 14.3953H56.6127L56.6067 14.4015ZM54.3064 6.84599C54.3064 7.42289 54.1006 7.88813 53.6951 8.2293C53.2895 8.57048 52.7386 8.74417 52.0486 8.74417H49.2277V4.96022H52.0364C52.7568 4.96022 53.3197 5.11529 53.7132 5.43786C54.1127 5.75422 54.3125 6.22567 54.3125 6.84599H54.3064ZM68.7799 3.1861H60.6503V14.4015H62.5571V9.83594H68.0777V8.05561H62.5571V4.96022H68.7799V3.17989V3.1861ZM73.0475 3.1861V14.4015H74.9543V3.1861H73.0475ZM84.5488 5.00984H88.0173V3.1861H79.1371V5.00984H82.6057V14.4015H84.5427V5.00984H84.5488ZM100.178 3.1861H92.0791V14.4015H100.257V12.6212H93.9859V9.62503H99.4762V7.8447H93.9859V4.96022H100.178V3.17989V3.1861ZM114.107 12.6088L112.872 11.3247C112.406 11.7713 111.928 12.1249 111.45 12.3917C110.971 12.6522 110.396 12.7825 109.731 12.7825C109.21 12.7825 108.726 12.677 108.284 12.4723C107.842 12.2614 107.454 11.976 107.134 11.6163C106.813 11.2503 106.559 10.8285 106.383 10.3446C106.208 9.86075 106.117 9.33968 106.117 8.78139C106.117 8.2231 106.208 7.70823 106.383 7.23059C106.559 6.74674 106.813 6.33112 107.134 5.97134C107.454 5.61155 107.842 5.3324 108.284 5.1215C108.726 4.91059 109.21 4.81134 109.731 4.81134C110.354 4.81134 110.911 4.9416 111.401 5.19594C111.892 5.45027 112.358 5.79144 112.794 6.20706L114.028 4.7493C113.768 4.49497 113.49 4.25925 113.199 4.04214C112.909 3.83123 112.588 3.64513 112.243 3.49005C111.898 3.33497 111.522 3.21711 111.111 3.13027C110.699 3.04342 110.245 3 109.743 3C108.907 3 108.151 3.15508 107.461 3.45904C106.77 3.76299 106.177 4.17861 105.681 4.70588C105.184 5.23315 104.791 5.85348 104.519 6.55444C104.24 7.26161 104.107 8.01219 104.107 8.81241C104.107 9.61262 104.246 10.3818 104.531 11.089C104.809 11.7961 105.203 12.4041 105.693 12.9251C106.189 13.44 106.777 13.8494 107.454 14.1534C108.132 14.4511 108.871 14.6 109.676 14.6C110.185 14.6 110.651 14.5566 111.074 14.4635C111.498 14.3705 111.886 14.2402 112.237 14.0603C112.588 13.8866 112.921 13.6757 113.229 13.4338C113.538 13.1919 113.835 12.9189 114.113 12.6088H114.107ZM122.781 5.01604H126.25V3.1923H117.37V5.01604H120.838V14.4077H122.775V5.01604H122.781Z" fill="#FFFFFF"/>
</svg>
